<svg xmlns="http://www.w3.org/2000/svg" xmlns:xlink="http://www.w3.org/1999/xlink" width="500" zoomAndPan="magnify" viewBox="0 0 375 374.999991" height="500" preserveAspectRatio="xMidYMid meet" version="1.0"><defs><g/><clipPath id="bfa7af59f5"><rect x="0" width="129" y="0" height="29"/></clipPath></defs><rect x="-37.5" width="450" fill="#ffffff" y="-37.499999" height="449.999989" fill-opacity="1"/><rect x="-37.5" width="450" fill="#ffffff" y="-37.499999" height="449.999989" fill-opacity="1"/><g transform="matrix(1, 0, 0, 1, 123, 173)"><g clip-path="url(#bfa7af59f5)"><g fill="#000000" fill-opacity="1"><g transform="translate(0.614718, 23.874978)"><g><path d="M 6.609375 -16.65625 L 6.609375 -9.390625 C 6.609375 -9.140625 6.734375 -9.015625 6.984375 -9.015625 L 7.40625 -9.015625 C 7.65625 -9.015625 7.78125 -9.140625 7.78125 -9.390625 L 7.78125 -9.8125 C 7.78125 -10.0625 7.898438 -10.1875 8.140625 -10.1875 L 8.578125 -10.1875 C 8.816406 -10.1875 8.9375 -10.304688 8.9375 -10.546875 L 8.9375 -15.484375 C 8.9375 -15.734375 8.816406 -15.859375 8.578125 -15.859375 L 8.140625 -15.859375 C 7.898438 -15.859375 7.78125 -15.984375 7.78125 -16.234375 L 7.78125 -16.65625 C 7.78125 -16.90625 7.65625 -17.03125 7.40625 -17.03125 L 6.984375 -17.03125 C 6.734375 -17.03125 6.609375 -16.90625 6.609375 -16.65625 Z M 1.359375 -0.375 L 1.359375 -17.828125 C 1.359375 -18.066406 1.484375 -18.1875 1.734375 -18.1875 L 11.484375 -18.1875 C 11.734375 -18.1875 11.859375 -18.066406 11.859375 -17.828125 L 11.859375 -17.390625 C 11.859375 -17.148438 11.976562 -17.03125 12.21875 -17.03125 L 12.65625 -17.03125 C 12.894531 -17.03125 13.015625 -16.90625 13.015625 -16.65625 L 13.015625 -16.234375 C 13.015625 -15.984375 13.140625 -15.859375 13.390625 -15.859375 L 13.8125 -15.859375 C 14.0625 -15.859375 14.1875 -15.734375 14.1875 -15.484375 L 14.1875 -10.546875 C 14.1875 -10.304688 14.0625 -10.1875 13.8125 -10.1875 L 13.390625 -10.1875 C 13.140625 -10.1875 13.015625 -10.0625 13.015625 -9.8125 L 13.015625 -9.390625 C 13.015625 -9.140625 12.894531 -9.015625 12.65625 -9.015625 L 10.484375 -9.015625 C 10.234375 -9.015625 10.109375 -8.894531 10.109375 -8.65625 L 10.109375 -8.21875 C 10.109375 -7.976562 10.234375 -7.859375 10.484375 -7.859375 L 12.65625 -7.859375 C 12.894531 -7.859375 13.015625 -7.734375 13.015625 -7.484375 L 13.015625 -7.0625 C 13.015625 -6.8125 13.140625 -6.6875 13.390625 -6.6875 L 13.8125 -6.6875 C 14.0625 -6.6875 14.1875 -6.5625 14.1875 -6.3125 L 14.1875 -0.375 C 14.1875 -0.125 14.0625 0 13.8125 0 L 9.3125 0 C 9.0625 0 8.9375 -0.125 8.9375 -0.375 L 8.9375 -6.3125 C 8.9375 -6.5625 8.816406 -6.6875 8.578125 -6.6875 L 8.140625 -6.6875 C 7.898438 -6.6875 7.78125 -6.8125 7.78125 -7.0625 L 7.78125 -7.484375 C 7.78125 -7.734375 7.65625 -7.859375 7.40625 -7.859375 L 6.984375 -7.859375 C 6.734375 -7.859375 6.609375 -7.734375 6.609375 -7.484375 L 6.609375 -0.375 C 6.609375 -0.125 6.484375 0 6.234375 0 L 1.734375 0 C 1.484375 0 1.359375 -0.125 1.359375 -0.375 Z M 1.359375 -0.375 "/></g></g><g transform="translate(16.170272, 23.874978)"><g><path d="M 3.6875 -0.375 L 3.6875 -0.796875 C 3.6875 -1.046875 3.566406 -1.171875 3.328125 -1.171875 L 2.890625 -1.171875 C 2.648438 -1.171875 2.53125 -1.289062 2.53125 -1.53125 L 2.53125 -1.96875 C 2.53125 -2.207031 2.40625 -2.328125 2.15625 -2.328125 L 1.734375 -2.328125 C 1.484375 -2.328125 1.359375 -2.453125 1.359375 -2.703125 L 1.359375 -15.484375 C 1.359375 -15.734375 1.484375 -15.859375 1.734375 -15.859375 L 2.15625 -15.859375 C 2.40625 -15.859375 2.53125 -15.984375 2.53125 -16.234375 L 2.53125 -16.65625 C 2.53125 -16.90625 2.648438 -17.03125 2.890625 -17.03125 L 3.328125 -17.03125 C 3.566406 -17.03125 3.6875 -17.148438 3.6875 -17.390625 L 3.6875 -17.828125 C 3.6875 -18.066406 3.8125 -18.1875 4.0625 -18.1875 L 12.34375 -18.1875 C 12.601562 -18.1875 12.734375 -18.0625 12.734375 -17.8125 L 12.734375 -17.421875 C 12.734375 -17.160156 12.863281 -17.03125 13.125 -17.03125 L 13.796875 -17.03125 C 14.054688 -17.03125 14.1875 -16.898438 14.1875 -16.640625 L 14.1875 -13.328125 C 14.1875 -13.078125 14.054688 -12.953125 13.796875 -12.953125 L 10.5 -12.953125 C 10.238281 -12.953125 10.109375 -13.078125 10.109375 -13.328125 L 10.109375 -13.75 C 10.109375 -13.988281 9.984375 -14.109375 9.734375 -14.109375 L 9.328125 -14.109375 C 9.066406 -14.109375 8.9375 -14.238281 8.9375 -14.5 L 8.9375 -16.65625 C 8.9375 -16.90625 8.816406 -17.03125 8.578125 -17.03125 L 8.140625 -17.03125 C 7.898438 -17.03125 7.78125 -16.90625 7.78125 -16.65625 L 7.78125 -16.234375 C 7.78125 -15.984375 7.65625 -15.859375 7.40625 -15.859375 L 6.984375 -15.859375 C 6.734375 -15.859375 6.609375 -15.734375 6.609375 -15.484375 L 6.609375 -2.703125 C 6.609375 -2.453125 6.734375 -2.328125 6.984375 -2.328125 L 7.40625 -2.328125 C 7.65625 -2.328125 7.78125 -2.207031 7.78125 -1.96875 L 7.78125 -1.53125 C 7.78125 -1.289062 7.898438 -1.171875 8.140625 -1.171875 L 8.578125 -1.171875 C 8.816406 -1.171875 8.9375 -1.289062 8.9375 -1.53125 L 8.9375 -4.859375 C 8.9375 -5.117188 9.066406 -5.25 9.328125 -5.25 L 13.796875 -5.25 C 14.054688 -5.25 14.1875 -5.117188 14.1875 -4.859375 L 14.1875 -1.5625 C 14.1875 -1.300781 14.054688 -1.171875 13.796875 -1.171875 L 13.40625 -1.171875 C 13.144531 -1.171875 13.015625 -1.039062 13.015625 -0.78125 L 13.015625 -0.390625 C 13.015625 -0.128906 12.890625 0 12.640625 0 L 4.0625 0 C 3.8125 0 3.6875 -0.125 3.6875 -0.375 Z M 3.6875 -0.375 "/></g></g></g><g fill="#000000" fill-opacity="1"><g transform="translate(31.531379, 23.874978)"><g><path d="M 6.609375 -16.65625 L 6.609375 -9.390625 C 6.609375 -9.140625 6.734375 -9.015625 6.984375 -9.015625 L 7.40625 -9.015625 C 7.65625 -9.015625 7.78125 -9.140625 7.78125 -9.390625 L 7.78125 -9.8125 C 7.78125 -10.0625 7.898438 -10.1875 8.140625 -10.1875 L 8.578125 -10.1875 C 8.816406 -10.1875 8.9375 -10.304688 8.9375 -10.546875 L 8.9375 -15.484375 C 8.9375 -15.734375 8.816406 -15.859375 8.578125 -15.859375 L 8.140625 -15.859375 C 7.898438 -15.859375 7.78125 -15.984375 7.78125 -16.234375 L 7.78125 -16.65625 C 7.78125 -16.90625 7.65625 -17.03125 7.40625 -17.03125 L 6.984375 -17.03125 C 6.734375 -17.03125 6.609375 -16.90625 6.609375 -16.65625 Z M 1.359375 -0.375 L 1.359375 -17.828125 C 1.359375 -18.066406 1.484375 -18.1875 1.734375 -18.1875 L 11.484375 -18.1875 C 11.734375 -18.1875 11.859375 -18.066406 11.859375 -17.828125 L 11.859375 -17.390625 C 11.859375 -17.148438 11.976562 -17.03125 12.21875 -17.03125 L 12.65625 -17.03125 C 12.894531 -17.03125 13.015625 -16.90625 13.015625 -16.65625 L 13.015625 -16.234375 C 13.015625 -15.984375 13.140625 -15.859375 13.390625 -15.859375 L 13.8125 -15.859375 C 14.0625 -15.859375 14.1875 -15.734375 14.1875 -15.484375 L 14.1875 -10.546875 C 14.1875 -10.304688 14.0625 -10.1875 13.8125 -10.1875 L 13.390625 -10.1875 C 13.140625 -10.1875 13.015625 -10.0625 13.015625 -9.8125 L 13.015625 -9.390625 C 13.015625 -9.140625 12.894531 -9.015625 12.65625 -9.015625 L 10.484375 -9.015625 C 10.234375 -9.015625 10.109375 -8.894531 10.109375 -8.65625 L 10.109375 -8.21875 C 10.109375 -7.976562 10.234375 -7.859375 10.484375 -7.859375 L 12.65625 -7.859375 C 12.894531 -7.859375 13.015625 -7.734375 13.015625 -7.484375 L 13.015625 -7.0625 C 13.015625 -6.8125 13.140625 -6.6875 13.390625 -6.6875 L 13.8125 -6.6875 C 14.0625 -6.6875 14.1875 -6.5625 14.1875 -6.3125 L 14.1875 -0.375 C 14.1875 -0.125 14.0625 0 13.8125 0 L 9.3125 0 C 9.0625 0 8.9375 -0.125 8.9375 -0.375 L 8.9375 -6.3125 C 8.9375 -6.5625 8.816406 -6.6875 8.578125 -6.6875 L 8.140625 -6.6875 C 7.898438 -6.6875 7.78125 -6.8125 7.78125 -7.0625 L 7.78125 -7.484375 C 7.78125 -7.734375 7.65625 -7.859375 7.40625 -7.859375 L 6.984375 -7.859375 C 6.734375 -7.859375 6.609375 -7.734375 6.609375 -7.484375 L 6.609375 -0.375 C 6.609375 -0.125 6.484375 0 6.234375 0 L 1.734375 0 C 1.484375 0 1.359375 -0.125 1.359375 -0.375 Z M 1.359375 -0.375 "/></g></g><g transform="translate(47.086934, 23.874978)"><g><path d="M 2.046875 -0.375 L 2.046875 -0.796875 C 2.046875 -1.046875 1.921875 -1.171875 1.671875 -1.171875 L 1.25 -1.171875 C 1 -1.171875 0.875 -1.289062 0.875 -1.53125 L 0.875 -4.875 C 0.875 -5.125 1 -5.25 1.25 -5.25 L 5.75 -5.25 C 6 -5.25 6.125 -5.125 6.125 -4.875 L 6.125 -1.53125 C 6.125 -1.289062 6.242188 -1.171875 6.484375 -1.171875 L 6.921875 -1.171875 C 7.171875 -1.171875 7.296875 -1.289062 7.296875 -1.53125 L 7.296875 -1.96875 C 7.296875 -2.207031 7.414062 -2.328125 7.65625 -2.328125 L 8.296875 -2.328125 C 8.546875 -2.328125 8.671875 -2.453125 8.671875 -2.703125 L 8.671875 -7.328125 C 8.671875 -7.578125 8.546875 -7.703125 8.296875 -7.703125 L 7.875 -7.703125 C 7.625 -7.703125 7.5 -7.820312 7.5 -8.0625 L 7.5 -8.5 C 7.5 -8.738281 7.378906 -8.859375 7.140625 -8.859375 L 3.796875 -8.859375 C 3.546875 -8.859375 3.421875 -8.984375 3.421875 -9.234375 L 3.421875 -9.65625 C 3.421875 -9.90625 3.296875 -10.03125 3.046875 -10.03125 L 2.625 -10.03125 C 2.375 -10.03125 2.25 -10.15625 2.25 -10.40625 L 2.25 -10.8125 C 2.25 -11.070312 2.117188 -11.203125 1.859375 -11.203125 L 1.484375 -11.203125 C 1.222656 -11.203125 1.09375 -11.328125 1.09375 -11.578125 L 1.09375 -15.46875 C 1.09375 -15.726562 1.222656 -15.859375 1.484375 -15.859375 L 1.859375 -15.859375 C 2.117188 -15.859375 2.25 -15.988281 2.25 -16.25 L 2.25 -16.65625 C 2.25 -16.90625 2.375 -17.03125 2.625 -17.03125 L 3.046875 -17.03125 C 3.296875 -17.03125 3.421875 -17.148438 3.421875 -17.390625 L 3.421875 -17.828125 C 3.421875 -18.066406 3.546875 -18.1875 3.796875 -18.1875 L 11.015625 -18.1875 C 11.265625 -18.1875 11.390625 -18.066406 11.390625 -17.828125 L 11.390625 -17.390625 C 11.390625 -17.148438 11.515625 -17.03125 11.765625 -17.03125 L 13.15625 -17.03125 C 13.40625 -17.03125 13.53125 -16.90625 13.53125 -16.65625 L 13.53125 -13.3125 C 13.53125 -13.070312 13.40625 -12.953125 13.15625 -12.953125 L 10.203125 -12.953125 C 9.953125 -12.953125 9.828125 -13.070312 9.828125 -13.3125 L 9.828125 -13.75 C 9.828125 -13.988281 9.707031 -14.109375 9.46875 -14.109375 L 9.03125 -14.109375 C 8.789062 -14.109375 8.671875 -14.234375 8.671875 -14.484375 L 8.671875 -16.65625 C 8.671875 -16.90625 8.546875 -17.03125 8.296875 -17.03125 L 7.875 -17.03125 C 7.625 -17.03125 7.5 -16.90625 7.5 -16.65625 L 7.5 -16.234375 C 7.5 -15.984375 7.378906 -15.859375 7.140625 -15.859375 L 6.703125 -15.859375 C 6.460938 -15.859375 6.34375 -15.734375 6.34375 -15.484375 L 6.34375 -11.5625 C 6.34375 -11.320312 6.460938 -11.203125 6.703125 -11.203125 L 7.328125 -11.203125 C 7.578125 -11.203125 7.703125 -11.078125 7.703125 -10.828125 L 7.703125 -10.40625 C 7.703125 -10.15625 7.820312 -10.03125 8.0625 -10.03125 L 11.21875 -10.03125 C 11.457031 -10.03125 11.578125 -9.90625 11.578125 -9.65625 L 11.578125 -9.234375 C 11.578125 -8.984375 11.703125 -8.859375 11.953125 -8.859375 L 12.375 -8.859375 C 12.625 -8.859375 12.75 -8.738281 12.75 -8.5 L 12.75 -8.09375 C 12.75 -7.832031 12.878906 -7.703125 13.140625 -7.703125 L 13.53125 -7.703125 C 13.789062 -7.703125 13.921875 -7.570312 13.921875 -7.3125 L 13.921875 -2.71875 C 13.921875 -2.457031 13.789062 -2.328125 13.53125 -2.328125 L 13.140625 -2.328125 C 12.878906 -2.328125 12.75 -2.195312 12.75 -1.9375 L 12.75 -1.53125 C 12.75 -1.289062 12.625 -1.171875 12.375 -1.171875 L 11.953125 -1.171875 C 11.703125 -1.171875 11.578125 -1.046875 11.578125 -0.796875 L 11.578125 -0.375 C 11.578125 -0.125 11.460938 0 11.234375 0 L 2.390625 0 C 2.160156 0 2.046875 -0.125 2.046875 -0.375 Z M 2.046875 -0.375 "/></g></g></g><g fill="#000000" fill-opacity="1"><g transform="translate(62.078598, 23.874978)"><g><path d="M 2.71875 -0.375 L 2.71875 -0.796875 C 2.71875 -1.046875 2.597656 -1.171875 2.359375 -1.171875 L 1.625 -1.171875 C 1.382812 -1.171875 1.265625 -1.289062 1.265625 -1.53125 L 1.265625 -4.875 C 1.265625 -5.125 1.382812 -5.25 1.625 -5.25 L 4.96875 -5.25 C 5.21875 -5.25 5.34375 -5.125 5.34375 -4.875 L 5.34375 -4.453125 C 5.34375 -4.203125 5.46875 -4.078125 5.71875 -4.078125 L 6.140625 -4.078125 C 6.390625 -4.078125 6.515625 -3.957031 6.515625 -3.71875 L 6.515625 -1.53125 C 6.515625 -1.289062 6.632812 -1.171875 6.875 -1.171875 L 7.703125 -1.171875 C 7.941406 -1.171875 8.0625 -1.289062 8.0625 -1.53125 L 8.0625 -1.96875 C 8.0625 -2.207031 8.1875 -2.328125 8.4375 -2.328125 L 8.859375 -2.328125 C 9.109375 -2.328125 9.234375 -2.453125 9.234375 -2.703125 L 9.234375 -8.1875 C 9.234375 -8.425781 9.109375 -8.546875 8.859375 -8.546875 L 8.4375 -8.546875 C 8.1875 -8.546875 8.0625 -8.671875 8.0625 -8.921875 L 8.0625 -9.34375 C 8.0625 -9.59375 7.941406 -9.71875 7.703125 -9.71875 L 2.796875 -9.71875 C 2.554688 -9.71875 2.4375 -9.84375 2.4375 -10.09375 L 2.4375 -10.515625 C 2.4375 -10.765625 2.3125 -10.890625 2.0625 -10.890625 L 1.625 -10.890625 C 1.382812 -10.890625 1.265625 -11.007812 1.265625 -11.25 L 1.265625 -17.828125 C 1.265625 -18.066406 1.382812 -18.1875 1.625 -18.1875 L 14.109375 -18.1875 C 14.359375 -18.1875 14.484375 -18.066406 14.484375 -17.828125 L 14.484375 -13.3125 C 14.484375 -13.070312 14.359375 -12.953125 14.109375 -12.953125 L 9.609375 -12.953125 C 9.359375 -12.953125 9.234375 -13.070312 9.234375 -13.3125 L 9.234375 -16.65625 C 9.234375 -16.90625 9.109375 -17.03125 8.859375 -17.03125 L 8.4375 -17.03125 C 8.1875 -17.03125 8.0625 -16.90625 8.0625 -16.65625 L 8.0625 -16.234375 C 8.0625 -15.984375 7.941406 -15.859375 7.703125 -15.859375 L 6.6875 -15.859375 C 6.4375 -15.859375 6.3125 -15.734375 6.3125 -15.484375 L 6.3125 -12.421875 C 6.3125 -12.171875 6.4375 -12.046875 6.6875 -12.046875 L 7.109375 -12.046875 C 7.359375 -12.046875 7.484375 -11.925781 7.484375 -11.6875 L 7.484375 -11.25 C 7.484375 -11.007812 7.609375 -10.890625 7.859375 -10.890625 L 12.171875 -10.890625 C 12.410156 -10.890625 12.53125 -10.765625 12.53125 -10.515625 L 12.53125 -10.09375 C 12.53125 -9.84375 12.65625 -9.71875 12.90625 -9.71875 L 13.328125 -9.71875 C 13.578125 -9.71875 13.703125 -9.59375 13.703125 -9.34375 L 13.703125 -8.921875 C 13.703125 -8.671875 13.828125 -8.546875 14.078125 -8.546875 L 14.5 -8.546875 C 14.75 -8.546875 14.875 -8.425781 14.875 -8.1875 L 14.875 -2.703125 C 14.875 -2.453125 14.75 -2.328125 14.5 -2.328125 L 14.203125 -2.328125 C 13.960938 -2.328125 13.84375 -2.207031 13.84375 -1.96875 L 13.84375 -1.53125 C 13.84375 -1.289062 13.71875 -1.171875 13.46875 -1.171875 L 13.046875 -1.171875 C 12.796875 -1.171875 12.671875 -1.046875 12.671875 -0.796875 L 12.671875 -0.375 C 12.671875 -0.125 12.546875 0 12.296875 0 L 3.09375 0 C 2.84375 0 2.71875 -0.125 2.71875 -0.375 Z M 2.71875 -0.375 "/></g></g></g><g fill="#000000" fill-opacity="1"><g transform="translate(78.217484, 23.874978)"><g><path d="M 3.6875 -0.375 L 3.6875 -0.796875 C 3.6875 -1.046875 3.566406 -1.171875 3.328125 -1.171875 L 2.890625 -1.171875 C 2.648438 -1.171875 2.53125 -1.289062 2.53125 -1.53125 L 2.53125 -1.96875 C 2.53125 -2.207031 2.40625 -2.328125 2.15625 -2.328125 L 1.734375 -2.328125 C 1.484375 -2.328125 1.359375 -2.453125 1.359375 -2.703125 L 1.359375 -15.484375 C 1.359375 -15.734375 1.484375 -15.859375 1.734375 -15.859375 L 2.15625 -15.859375 C 2.40625 -15.859375 2.53125 -15.984375 2.53125 -16.234375 L 2.53125 -16.65625 C 2.53125 -16.90625 2.648438 -17.03125 2.890625 -17.03125 L 3.328125 -17.03125 C 3.566406 -17.03125 3.6875 -17.148438 3.6875 -17.390625 L 3.6875 -17.828125 C 3.6875 -18.066406 3.8125 -18.1875 4.0625 -18.1875 L 12.65625 -18.1875 C 12.894531 -18.1875 13.015625 -18.066406 13.015625 -17.828125 L 13.015625 -17.390625 C 13.015625 -17.148438 13.140625 -17.03125 13.390625 -17.03125 L 13.8125 -17.03125 C 14.0625 -17.03125 14.1875 -16.90625 14.1875 -16.65625 L 14.1875 -16.234375 C 14.1875 -15.984375 14.3125 -15.859375 14.5625 -15.859375 L 14.984375 -15.859375 C 15.234375 -15.859375 15.359375 -15.734375 15.359375 -15.484375 L 15.359375 -2.703125 C 15.359375 -2.453125 15.234375 -2.328125 14.984375 -2.328125 L 14.5625 -2.328125 C 14.3125 -2.328125 14.1875 -2.207031 14.1875 -1.96875 L 14.1875 -1.53125 C 14.1875 -1.289062 14.0625 -1.171875 13.8125 -1.171875 L 13.390625 -1.171875 C 13.140625 -1.171875 13.015625 -1.046875 13.015625 -0.796875 L 13.015625 -0.375 C 13.015625 -0.125 12.894531 0 12.65625 0 L 4.0625 0 C 3.8125 0 3.6875 -0.125 3.6875 -0.375 Z M 7.78125 -1.9375 L 7.78125 -1.515625 C 7.78125 -1.265625 7.898438 -1.140625 8.140625 -1.140625 L 8.578125 -1.140625 C 8.816406 -1.140625 8.9375 -1.265625 8.9375 -1.515625 L 8.9375 -1.9375 C 8.9375 -2.1875 9.0625 -2.3125 9.3125 -2.3125 L 9.734375 -2.3125 C 9.984375 -2.3125 10.109375 -2.4375 10.109375 -2.6875 L 10.109375 -15.484375 C 10.109375 -15.734375 9.984375 -15.859375 9.734375 -15.859375 L 9.3125 -15.859375 C 9.0625 -15.859375 8.9375 -15.984375 8.9375 -16.234375 L 8.9375 -16.65625 C 8.9375 -16.90625 8.816406 -17.03125 8.578125 -17.03125 L 8.140625 -17.03125 C 7.898438 -17.03125 7.78125 -16.90625 7.78125 -16.65625 L 7.78125 -16.234375 C 7.78125 -15.984375 7.65625 -15.859375 7.40625 -15.859375 L 6.984375 -15.859375 C 6.734375 -15.859375 6.609375 -15.734375 6.609375 -15.484375 L 6.609375 -2.6875 C 6.609375 -2.4375 6.734375 -2.3125 6.984375 -2.3125 L 7.40625 -2.3125 C 7.65625 -2.3125 7.78125 -2.1875 7.78125 -1.9375 Z M 7.78125 -1.9375 "/></g></g></g><g fill="#000000" fill-opacity="1"><g transform="translate(94.939701, 23.874978)"><g><path d="M 3.6875 -0.375 L 3.6875 -0.796875 C 3.6875 -1.046875 3.566406 -1.171875 3.328125 -1.171875 L 2.890625 -1.171875 C 2.648438 -1.171875 2.53125 -1.289062 2.53125 -1.53125 L 2.53125 -1.96875 C 2.53125 -2.207031 2.40625 -2.328125 2.15625 -2.328125 L 1.734375 -2.328125 C 1.484375 -2.328125 1.359375 -2.453125 1.359375 -2.703125 L 1.359375 -15.484375 C 1.359375 -15.734375 1.484375 -15.859375 1.734375 -15.859375 L 2.15625 -15.859375 C 2.40625 -15.859375 2.53125 -15.984375 2.53125 -16.234375 L 2.53125 -16.65625 C 2.53125 -16.90625 2.648438 -17.03125 2.890625 -17.03125 L 3.328125 -17.03125 C 3.566406 -17.03125 3.6875 -17.148438 3.6875 -17.390625 L 3.6875 -17.828125 C 3.6875 -18.066406 3.8125 -18.1875 4.0625 -18.1875 L 12.65625 -18.1875 C 12.894531 -18.1875 13.015625 -18.066406 13.015625 -17.828125 L 13.015625 -17.390625 C 13.015625 -17.148438 13.140625 -17.03125 13.390625 -17.03125 L 13.8125 -17.03125 C 14.0625 -17.03125 14.1875 -16.90625 14.1875 -16.65625 L 14.1875 -16.234375 C 14.1875 -15.984375 14.3125 -15.859375 14.5625 -15.859375 L 14.984375 -15.859375 C 15.234375 -15.859375 15.359375 -15.734375 15.359375 -15.484375 L 15.359375 -2.703125 C 15.359375 -2.453125 15.234375 -2.328125 14.984375 -2.328125 L 14.5625 -2.328125 C 14.3125 -2.328125 14.1875 -2.207031 14.1875 -1.96875 L 14.1875 -1.53125 C 14.1875 -1.289062 14.0625 -1.171875 13.8125 -1.171875 L 13.390625 -1.171875 C 13.140625 -1.171875 13.015625 -1.046875 13.015625 -0.796875 L 13.015625 -0.375 C 13.015625 -0.125 12.894531 0 12.65625 0 L 4.0625 0 C 3.8125 0 3.6875 -0.125 3.6875 -0.375 Z M 7.78125 -1.9375 L 7.78125 -1.515625 C 7.78125 -1.265625 7.898438 -1.140625 8.140625 -1.140625 L 8.578125 -1.140625 C 8.816406 -1.140625 8.9375 -1.265625 8.9375 -1.515625 L 8.9375 -1.9375 C 8.9375 -2.1875 9.0625 -2.3125 9.3125 -2.3125 L 9.734375 -2.3125 C 9.984375 -2.3125 10.109375 -2.4375 10.109375 -2.6875 L 10.109375 -15.484375 C 10.109375 -15.734375 9.984375 -15.859375 9.734375 -15.859375 L 9.3125 -15.859375 C 9.0625 -15.859375 8.9375 -15.984375 8.9375 -16.234375 L 8.9375 -16.65625 C 8.9375 -16.90625 8.816406 -17.03125 8.578125 -17.03125 L 8.140625 -17.03125 C 7.898438 -17.03125 7.78125 -16.90625 7.78125 -16.65625 L 7.78125 -16.234375 C 7.78125 -15.984375 7.65625 -15.859375 7.40625 -15.859375 L 6.984375 -15.859375 C 6.734375 -15.859375 6.609375 -15.734375 6.609375 -15.484375 L 6.609375 -2.6875 C 6.609375 -2.4375 6.734375 -2.3125 6.984375 -2.3125 L 7.40625 -2.3125 C 7.65625 -2.3125 7.78125 -2.1875 7.78125 -1.9375 Z M 7.78125 -1.9375 "/></g></g></g><g fill="#000000" fill-opacity="1"><g transform="translate(111.661923, 23.874978)"><g><path d="M 3.6875 -0.375 L 3.6875 -0.796875 C 3.6875 -1.046875 3.566406 -1.171875 3.328125 -1.171875 L 2.890625 -1.171875 C 2.648438 -1.171875 2.53125 -1.289062 2.53125 -1.53125 L 2.53125 -1.96875 C 2.53125 -2.207031 2.40625 -2.328125 2.15625 -2.328125 L 1.734375 -2.328125 C 1.484375 -2.328125 1.359375 -2.453125 1.359375 -2.703125 L 1.359375 -15.484375 C 1.359375 -15.734375 1.484375 -15.859375 1.734375 -15.859375 L 2.15625 -15.859375 C 2.40625 -15.859375 2.53125 -15.984375 2.53125 -16.234375 L 2.53125 -16.65625 C 2.53125 -16.90625 2.648438 -17.03125 2.890625 -17.03125 L 3.328125 -17.03125 C 3.566406 -17.03125 3.6875 -17.148438 3.6875 -17.390625 L 3.6875 -17.828125 C 3.6875 -18.066406 3.8125 -18.1875 4.0625 -18.1875 L 12.65625 -18.1875 C 12.894531 -18.1875 13.015625 -18.066406 13.015625 -17.828125 L 13.015625 -17.390625 C 13.015625 -17.148438 13.140625 -17.03125 13.390625 -17.03125 L 13.8125 -17.03125 C 14.0625 -17.03125 14.1875 -16.90625 14.1875 -16.65625 L 14.1875 -16.234375 C 14.1875 -15.984375 14.3125 -15.859375 14.5625 -15.859375 L 14.984375 -15.859375 C 15.234375 -15.859375 15.359375 -15.734375 15.359375 -15.484375 L 15.359375 -2.703125 C 15.359375 -2.453125 15.234375 -2.328125 14.984375 -2.328125 L 14.5625 -2.328125 C 14.3125 -2.328125 14.1875 -2.207031 14.1875 -1.96875 L 14.1875 -1.53125 C 14.1875 -1.289062 14.0625 -1.171875 13.8125 -1.171875 L 13.390625 -1.171875 C 13.140625 -1.171875 13.015625 -1.046875 13.015625 -0.796875 L 13.015625 -0.375 C 13.015625 -0.125 12.894531 0 12.65625 0 L 4.0625 0 C 3.8125 0 3.6875 -0.125 3.6875 -0.375 Z M 7.78125 -1.9375 L 7.78125 -1.515625 C 7.78125 -1.265625 7.898438 -1.140625 8.140625 -1.140625 L 8.578125 -1.140625 C 8.816406 -1.140625 8.9375 -1.265625 8.9375 -1.515625 L 8.9375 -1.9375 C 8.9375 -2.1875 9.0625 -2.3125 9.3125 -2.3125 L 9.734375 -2.3125 C 9.984375 -2.3125 10.109375 -2.4375 10.109375 -2.6875 L 10.109375 -15.484375 C 10.109375 -15.734375 9.984375 -15.859375 9.734375 -15.859375 L 9.3125 -15.859375 C 9.0625 -15.859375 8.9375 -15.984375 8.9375 -16.234375 L 8.9375 -16.65625 C 8.9375 -16.90625 8.816406 -17.03125 8.578125 -17.03125 L 8.140625 -17.03125 C 7.898438 -17.03125 7.78125 -16.90625 7.78125 -16.65625 L 7.78125 -16.234375 C 7.78125 -15.984375 7.65625 -15.859375 7.40625 -15.859375 L 6.984375 -15.859375 C 6.734375 -15.859375 6.609375 -15.734375 6.609375 -15.484375 L 6.609375 -2.6875 C 6.609375 -2.4375 6.734375 -2.3125 6.984375 -2.3125 L 7.40625 -2.3125 C 7.65625 -2.3125 7.78125 -2.1875 7.78125 -1.9375 Z M 7.78125 -1.9375 "/></g></g></g></g></g></svg>