<svg xmlns="http://www.w3.org/2000/svg" xmlns:xlink="http://www.w3.org/1999/xlink" width="240" zoomAndPan="magnify" viewBox="0 0 180 33.749998" height="45" preserveAspectRatio="xMidYMid meet" version="1.0"><defs><g/></defs><g fill="#ffffff" fill-opacity="1"><g transform="translate(0.326588, 29.034922)"><g><path d="M 9.28125 -23.390625 L 9.28125 -13.1875 C 9.28125 -12.84375 9.453125 -12.671875 9.796875 -12.671875 L 10.40625 -12.671875 C 10.75 -12.671875 10.921875 -12.84375 10.921875 -13.1875 L 10.921875 -13.78125 C 10.921875 -14.125 11.09375 -14.296875 11.4375 -14.296875 L 12.03125 -14.296875 C 12.382812 -14.296875 12.5625 -14.472656 12.5625 -14.828125 L 12.5625 -21.75 C 12.5625 -22.101562 12.382812 -22.28125 12.03125 -22.28125 L 11.4375 -22.28125 C 11.09375 -22.28125 10.921875 -22.453125 10.921875 -22.796875 L 10.921875 -23.390625 C 10.921875 -23.734375 10.75 -23.90625 10.40625 -23.90625 L 9.796875 -23.90625 C 9.453125 -23.90625 9.28125 -23.734375 9.28125 -23.390625 Z M 1.90625 -0.515625 L 1.90625 -25.03125 C 1.90625 -25.375 2.078125 -25.546875 2.421875 -25.546875 L 16.125 -25.546875 C 16.476562 -25.546875 16.65625 -25.375 16.65625 -25.03125 L 16.65625 -24.4375 C 16.65625 -24.082031 16.828125 -23.90625 17.171875 -23.90625 L 17.765625 -23.90625 C 18.109375 -23.90625 18.28125 -23.734375 18.28125 -23.390625 L 18.28125 -22.796875 C 18.28125 -22.453125 18.457031 -22.28125 18.8125 -22.28125 L 19.40625 -22.28125 C 19.75 -22.28125 19.921875 -22.101562 19.921875 -21.75 L 19.921875 -14.828125 C 19.921875 -14.472656 19.75 -14.296875 19.40625 -14.296875 L 18.8125 -14.296875 C 18.457031 -14.296875 18.28125 -14.125 18.28125 -13.78125 L 18.28125 -13.1875 C 18.28125 -12.84375 18.109375 -12.671875 17.765625 -12.671875 L 14.71875 -12.671875 C 14.363281 -12.671875 14.1875 -12.492188 14.1875 -12.140625 L 14.1875 -11.546875 C 14.1875 -11.203125 14.363281 -11.03125 14.71875 -11.03125 L 17.765625 -11.03125 C 18.109375 -11.03125 18.28125 -10.859375 18.28125 -10.515625 L 18.28125 -9.90625 C 18.28125 -9.5625 18.457031 -9.390625 18.8125 -9.390625 L 19.40625 -9.390625 C 19.75 -9.390625 19.921875 -9.21875 19.921875 -8.875 L 19.921875 -0.515625 C 19.921875 -0.171875 19.75 0 19.40625 0 L 13.078125 0 C 12.734375 0 12.5625 -0.171875 12.5625 -0.515625 L 12.5625 -8.875 C 12.5625 -9.21875 12.382812 -9.390625 12.03125 -9.390625 L 11.4375 -9.390625 C 11.09375 -9.390625 10.921875 -9.5625 10.921875 -9.90625 L 10.921875 -10.515625 C 10.921875 -10.859375 10.75 -11.03125 10.40625 -11.03125 L 9.796875 -11.03125 C 9.453125 -11.03125 9.28125 -10.859375 9.28125 -10.515625 L 9.28125 -0.515625 C 9.28125 -0.171875 9.109375 0 8.765625 0 L 2.421875 0 C 2.078125 0 1.90625 -0.171875 1.90625 -0.515625 Z M 1.90625 -0.515625 "/></g></g></g><g fill="#ffffff" fill-opacity="1"><g transform="translate(22.158558, 29.034922)"><g><path d="M 5.1875 -0.515625 L 5.1875 -1.125 C 5.1875 -1.46875 5.015625 -1.640625 4.671875 -1.640625 L 4.0625 -1.640625 C 3.71875 -1.640625 3.546875 -1.8125 3.546875 -2.15625 L 3.546875 -2.75 C 3.546875 -3.101562 3.375 -3.28125 3.03125 -3.28125 L 2.421875 -3.28125 C 2.078125 -3.28125 1.90625 -3.453125 1.90625 -3.796875 L 1.90625 -21.75 C 1.90625 -22.101562 2.078125 -22.28125 2.421875 -22.28125 L 3.03125 -22.28125 C 3.375 -22.28125 3.546875 -22.453125 3.546875 -22.796875 L 3.546875 -23.390625 C 3.546875 -23.734375 3.71875 -23.90625 4.0625 -23.90625 L 4.671875 -23.90625 C 5.015625 -23.90625 5.1875 -24.082031 5.1875 -24.4375 L 5.1875 -25.03125 C 5.1875 -25.375 5.359375 -25.546875 5.703125 -25.546875 L 17.328125 -25.546875 C 17.691406 -25.546875 17.875 -25.363281 17.875 -25 L 17.875 -24.453125 C 17.875 -24.085938 18.054688 -23.90625 18.421875 -23.90625 L 19.375 -23.90625 C 19.738281 -23.90625 19.921875 -23.722656 19.921875 -23.359375 L 19.921875 -18.71875 C 19.921875 -18.351562 19.738281 -18.171875 19.375 -18.171875 L 14.734375 -18.171875 C 14.367188 -18.171875 14.1875 -18.351562 14.1875 -18.71875 L 14.1875 -19.296875 C 14.1875 -19.640625 14.015625 -19.8125 13.671875 -19.8125 L 13.109375 -19.8125 C 12.742188 -19.8125 12.5625 -19.992188 12.5625 -20.359375 L 12.5625 -23.390625 C 12.5625 -23.734375 12.382812 -23.90625 12.03125 -23.90625 L 11.4375 -23.90625 C 11.09375 -23.90625 10.921875 -23.734375 10.921875 -23.390625 L 10.921875 -22.796875 C 10.921875 -22.453125 10.75 -22.28125 10.40625 -22.28125 L 9.796875 -22.28125 C 9.453125 -22.28125 9.28125 -22.101562 9.28125 -21.75 L 9.28125 -3.796875 C 9.28125 -3.453125 9.453125 -3.28125 9.796875 -3.28125 L 10.40625 -3.28125 C 10.75 -3.28125 10.921875 -3.101562 10.921875 -2.75 L 10.921875 -2.15625 C 10.921875 -1.8125 11.09375 -1.640625 11.4375 -1.640625 L 12.03125 -1.640625 C 12.382812 -1.640625 12.5625 -1.8125 12.5625 -2.15625 L 12.5625 -6.828125 C 12.5625 -7.191406 12.742188 -7.375 13.109375 -7.375 L 19.375 -7.375 C 19.738281 -7.375 19.921875 -7.191406 19.921875 -6.828125 L 19.921875 -2.1875 C 19.921875 -1.820312 19.738281 -1.640625 19.375 -1.640625 L 18.828125 -1.640625 C 18.460938 -1.640625 18.28125 -1.457031 18.28125 -1.09375 L 18.28125 -0.546875 C 18.28125 -0.179688 18.101562 0 17.75 0 L 5.703125 0 C 5.359375 0 5.1875 -0.171875 5.1875 -0.515625 Z M 5.1875 -0.515625 "/></g></g></g><g fill="#ffffff" fill-opacity="1"><g transform="translate(43.717629, 29.034922)"><g><path d="M 9.28125 -23.390625 L 9.28125 -13.1875 C 9.28125 -12.84375 9.453125 -12.671875 9.796875 -12.671875 L 10.40625 -12.671875 C 10.75 -12.671875 10.921875 -12.84375 10.921875 -13.1875 L 10.921875 -13.78125 C 10.921875 -14.125 11.09375 -14.296875 11.4375 -14.296875 L 12.03125 -14.296875 C 12.382812 -14.296875 12.5625 -14.472656 12.5625 -14.828125 L 12.5625 -21.75 C 12.5625 -22.101562 12.382812 -22.28125 12.03125 -22.28125 L 11.4375 -22.28125 C 11.09375 -22.28125 10.921875 -22.453125 10.921875 -22.796875 L 10.921875 -23.390625 C 10.921875 -23.734375 10.75 -23.90625 10.40625 -23.90625 L 9.796875 -23.90625 C 9.453125 -23.90625 9.28125 -23.734375 9.28125 -23.390625 Z M 1.90625 -0.515625 L 1.90625 -25.03125 C 1.90625 -25.375 2.078125 -25.546875 2.421875 -25.546875 L 16.125 -25.546875 C 16.476562 -25.546875 16.65625 -25.375 16.65625 -25.03125 L 16.65625 -24.4375 C 16.65625 -24.082031 16.828125 -23.90625 17.171875 -23.90625 L 17.765625 -23.90625 C 18.109375 -23.90625 18.28125 -23.734375 18.28125 -23.390625 L 18.28125 -22.796875 C 18.28125 -22.453125 18.457031 -22.28125 18.8125 -22.28125 L 19.40625 -22.28125 C 19.75 -22.28125 19.921875 -22.101562 19.921875 -21.75 L 19.921875 -14.828125 C 19.921875 -14.472656 19.75 -14.296875 19.40625 -14.296875 L 18.8125 -14.296875 C 18.457031 -14.296875 18.28125 -14.125 18.28125 -13.78125 L 18.28125 -13.1875 C 18.28125 -12.84375 18.109375 -12.671875 17.765625 -12.671875 L 14.71875 -12.671875 C 14.363281 -12.671875 14.1875 -12.492188 14.1875 -12.140625 L 14.1875 -11.546875 C 14.1875 -11.203125 14.363281 -11.03125 14.71875 -11.03125 L 17.765625 -11.03125 C 18.109375 -11.03125 18.28125 -10.859375 18.28125 -10.515625 L 18.28125 -9.90625 C 18.28125 -9.5625 18.457031 -9.390625 18.8125 -9.390625 L 19.40625 -9.390625 C 19.75 -9.390625 19.921875 -9.21875 19.921875 -8.875 L 19.921875 -0.515625 C 19.921875 -0.171875 19.75 0 19.40625 0 L 13.078125 0 C 12.734375 0 12.5625 -0.171875 12.5625 -0.515625 L 12.5625 -8.875 C 12.5625 -9.21875 12.382812 -9.390625 12.03125 -9.390625 L 11.4375 -9.390625 C 11.09375 -9.390625 10.921875 -9.5625 10.921875 -9.90625 L 10.921875 -10.515625 C 10.921875 -10.859375 10.75 -11.03125 10.40625 -11.03125 L 9.796875 -11.03125 C 9.453125 -11.03125 9.28125 -10.859375 9.28125 -10.515625 L 9.28125 -0.515625 C 9.28125 -0.171875 9.109375 0 8.765625 0 L 2.421875 0 C 2.078125 0 1.90625 -0.171875 1.90625 -0.515625 Z M 1.90625 -0.515625 "/></g></g></g><g fill="#ffffff" fill-opacity="1"><g transform="translate(65.549599, 29.034922)"><g><path d="M 2.859375 -0.515625 L 2.859375 -1.125 C 2.859375 -1.46875 2.6875 -1.640625 2.34375 -1.640625 L 1.75 -1.640625 C 1.40625 -1.640625 1.234375 -1.8125 1.234375 -2.15625 L 1.234375 -6.84375 C 1.234375 -7.195312 1.40625 -7.375 1.75 -7.375 L 8.078125 -7.375 C 8.421875 -7.375 8.59375 -7.195312 8.59375 -6.84375 L 8.59375 -2.15625 C 8.59375 -1.8125 8.765625 -1.640625 9.109375 -1.640625 L 9.71875 -1.640625 C 10.0625 -1.640625 10.234375 -1.8125 10.234375 -2.15625 L 10.234375 -2.75 C 10.234375 -3.101562 10.40625 -3.28125 10.75 -3.28125 L 11.65625 -3.28125 C 12 -3.28125 12.171875 -3.453125 12.171875 -3.796875 L 12.171875 -10.296875 C 12.171875 -10.640625 12 -10.8125 11.65625 -10.8125 L 11.0625 -10.8125 C 10.707031 -10.8125 10.53125 -10.984375 10.53125 -11.328125 L 10.53125 -11.921875 C 10.53125 -12.273438 10.359375 -12.453125 10.015625 -12.453125 L 5.328125 -12.453125 C 4.972656 -12.453125 4.796875 -12.625 4.796875 -12.96875 L 4.796875 -13.5625 C 4.796875 -13.90625 4.625 -14.078125 4.28125 -14.078125 L 3.6875 -14.078125 C 3.34375 -14.078125 3.171875 -14.253906 3.171875 -14.609375 L 3.171875 -15.171875 C 3.171875 -15.535156 2.988281 -15.71875 2.625 -15.71875 L 2.078125 -15.71875 C 1.710938 -15.71875 1.53125 -15.898438 1.53125 -16.265625 L 1.53125 -21.734375 C 1.53125 -22.097656 1.710938 -22.28125 2.078125 -22.28125 L 2.625 -22.28125 C 2.988281 -22.28125 3.171875 -22.457031 3.171875 -22.8125 L 3.171875 -23.390625 C 3.171875 -23.734375 3.34375 -23.90625 3.6875 -23.90625 L 4.28125 -23.90625 C 4.625 -23.90625 4.796875 -24.082031 4.796875 -24.4375 L 4.796875 -25.03125 C 4.796875 -25.375 4.972656 -25.546875 5.328125 -25.546875 L 15.484375 -25.546875 C 15.828125 -25.546875 16 -25.375 16 -25.03125 L 16 -24.4375 C 16 -24.082031 16.171875 -23.90625 16.515625 -23.90625 L 18.484375 -23.90625 C 18.828125 -23.90625 19 -23.734375 19 -23.390625 L 19 -18.703125 C 19 -18.347656 18.828125 -18.171875 18.484375 -18.171875 L 14.328125 -18.171875 C 13.984375 -18.171875 13.8125 -18.347656 13.8125 -18.703125 L 13.8125 -19.296875 C 13.8125 -19.640625 13.640625 -19.8125 13.296875 -19.8125 L 12.6875 -19.8125 C 12.34375 -19.8125 12.171875 -19.988281 12.171875 -20.34375 L 12.171875 -23.390625 C 12.171875 -23.734375 12 -23.90625 11.65625 -23.90625 L 11.0625 -23.90625 C 10.707031 -23.90625 10.53125 -23.734375 10.53125 -23.390625 L 10.53125 -22.796875 C 10.53125 -22.453125 10.359375 -22.28125 10.015625 -22.28125 L 9.421875 -22.28125 C 9.078125 -22.28125 8.90625 -22.101562 8.90625 -21.75 L 8.90625 -16.234375 C 8.90625 -15.890625 9.078125 -15.71875 9.421875 -15.71875 L 10.296875 -15.71875 C 10.640625 -15.71875 10.8125 -15.546875 10.8125 -15.203125 L 10.8125 -14.609375 C 10.8125 -14.253906 10.984375 -14.078125 11.328125 -14.078125 L 15.75 -14.078125 C 16.09375 -14.078125 16.265625 -13.90625 16.265625 -13.5625 L 16.265625 -12.96875 C 16.265625 -12.625 16.4375 -12.453125 16.78125 -12.453125 L 17.390625 -12.453125 C 17.734375 -12.453125 17.90625 -12.273438 17.90625 -11.921875 L 17.90625 -11.359375 C 17.90625 -10.992188 18.085938 -10.8125 18.453125 -10.8125 L 19 -10.8125 C 19.363281 -10.8125 19.546875 -10.628906 19.546875 -10.265625 L 19.546875 -3.828125 C 19.546875 -3.460938 19.363281 -3.28125 19 -3.28125 L 18.453125 -3.28125 C 18.085938 -3.28125 17.90625 -3.097656 17.90625 -2.734375 L 17.90625 -2.15625 C 17.90625 -1.8125 17.734375 -1.640625 17.390625 -1.640625 L 16.78125 -1.640625 C 16.4375 -1.640625 16.265625 -1.46875 16.265625 -1.125 L 16.265625 -0.515625 C 16.265625 -0.171875 16.101562 0 15.78125 0 L 3.359375 0 C 3.023438 0 2.859375 -0.171875 2.859375 -0.515625 Z M 2.859375 -0.515625 "/></g></g></g><g fill="#ffffff" fill-opacity="1"><g transform="translate(86.590156, 29.034922)"><g><path d="M 3.828125 -0.515625 L 3.828125 -1.125 C 3.828125 -1.46875 3.648438 -1.640625 3.296875 -1.640625 L 2.296875 -1.640625 C 1.953125 -1.640625 1.78125 -1.8125 1.78125 -2.15625 L 1.78125 -6.84375 C 1.78125 -7.195312 1.953125 -7.375 2.296875 -7.375 L 6.984375 -7.375 C 7.328125 -7.375 7.5 -7.195312 7.5 -6.84375 L 7.5 -6.25 C 7.5 -5.90625 7.675781 -5.734375 8.03125 -5.734375 L 8.625 -5.734375 C 8.96875 -5.734375 9.140625 -5.5625 9.140625 -5.21875 L 9.140625 -2.15625 C 9.140625 -1.8125 9.3125 -1.640625 9.65625 -1.640625 L 10.8125 -1.640625 C 11.15625 -1.640625 11.328125 -1.8125 11.328125 -2.15625 L 11.328125 -2.75 C 11.328125 -3.101562 11.5 -3.28125 11.84375 -3.28125 L 12.453125 -3.28125 C 12.796875 -3.28125 12.96875 -3.453125 12.96875 -3.796875 L 12.96875 -11.484375 C 12.96875 -11.835938 12.796875 -12.015625 12.453125 -12.015625 L 11.84375 -12.015625 C 11.5 -12.015625 11.328125 -12.1875 11.328125 -12.53125 L 11.328125 -13.125 C 11.328125 -13.46875 11.15625 -13.640625 10.8125 -13.640625 L 3.9375 -13.640625 C 3.582031 -13.640625 3.40625 -13.816406 3.40625 -14.171875 L 3.40625 -14.765625 C 3.40625 -15.109375 3.234375 -15.28125 2.890625 -15.28125 L 2.296875 -15.28125 C 1.953125 -15.28125 1.78125 -15.457031 1.78125 -15.8125 L 1.78125 -25.03125 C 1.78125 -25.375 1.953125 -25.546875 2.296875 -25.546875 L 19.8125 -25.546875 C 20.164062 -25.546875 20.34375 -25.375 20.34375 -25.03125 L 20.34375 -18.703125 C 20.34375 -18.347656 20.164062 -18.171875 19.8125 -18.171875 L 13.484375 -18.171875 C 13.140625 -18.171875 12.96875 -18.347656 12.96875 -18.703125 L 12.96875 -23.390625 C 12.96875 -23.734375 12.796875 -23.90625 12.453125 -23.90625 L 11.84375 -23.90625 C 11.5 -23.90625 11.328125 -23.734375 11.328125 -23.390625 L 11.328125 -22.796875 C 11.328125 -22.453125 11.15625 -22.28125 10.8125 -22.28125 L 9.390625 -22.28125 C 9.046875 -22.28125 8.875 -22.101562 8.875 -21.75 L 8.875 -17.4375 C 8.875 -17.09375 9.046875 -16.921875 9.390625 -16.921875 L 9.984375 -16.921875 C 10.335938 -16.921875 10.515625 -16.75 10.515625 -16.40625 L 10.515625 -15.8125 C 10.515625 -15.457031 10.6875 -15.28125 11.03125 -15.28125 L 17.09375 -15.28125 C 17.4375 -15.28125 17.609375 -15.109375 17.609375 -14.765625 L 17.609375 -14.171875 C 17.609375 -13.816406 17.78125 -13.640625 18.125 -13.640625 L 18.71875 -13.640625 C 19.070312 -13.640625 19.25 -13.46875 19.25 -13.125 L 19.25 -12.53125 C 19.25 -12.1875 19.421875 -12.015625 19.765625 -12.015625 L 20.359375 -12.015625 C 20.703125 -12.015625 20.875 -11.835938 20.875 -11.484375 L 20.875 -3.796875 C 20.875 -3.453125 20.703125 -3.28125 20.359375 -3.28125 L 19.953125 -3.28125 C 19.609375 -3.28125 19.4375 -3.101562 19.4375 -2.75 L 19.4375 -2.15625 C 19.4375 -1.8125 19.265625 -1.640625 18.921875 -1.640625 L 18.3125 -1.640625 C 17.96875 -1.640625 17.796875 -1.46875 17.796875 -1.125 L 17.796875 -0.515625 C 17.796875 -0.171875 17.625 0 17.28125 0 L 4.34375 0 C 4 0 3.828125 -0.171875 3.828125 -0.515625 Z M 3.828125 -0.515625 "/></g></g></g><g fill="#ffffff" fill-opacity="1"><g transform="translate(109.240814, 29.034922)"><g><path d="M 5.1875 -0.515625 L 5.1875 -1.125 C 5.1875 -1.46875 5.015625 -1.640625 4.671875 -1.640625 L 4.0625 -1.640625 C 3.71875 -1.640625 3.546875 -1.8125 3.546875 -2.15625 L 3.546875 -2.75 C 3.546875 -3.101562 3.375 -3.28125 3.03125 -3.28125 L 2.421875 -3.28125 C 2.078125 -3.28125 1.90625 -3.453125 1.90625 -3.796875 L 1.90625 -21.75 C 1.90625 -22.101562 2.078125 -22.28125 2.421875 -22.28125 L 3.03125 -22.28125 C 3.375 -22.28125 3.546875 -22.453125 3.546875 -22.796875 L 3.546875 -23.390625 C 3.546875 -23.734375 3.71875 -23.90625 4.0625 -23.90625 L 4.671875 -23.90625 C 5.015625 -23.90625 5.1875 -24.082031 5.1875 -24.4375 L 5.1875 -25.03125 C 5.1875 -25.375 5.359375 -25.546875 5.703125 -25.546875 L 17.765625 -25.546875 C 18.109375 -25.546875 18.28125 -25.375 18.28125 -25.03125 L 18.28125 -24.4375 C 18.28125 -24.082031 18.457031 -23.90625 18.8125 -23.90625 L 19.40625 -23.90625 C 19.75 -23.90625 19.921875 -23.734375 19.921875 -23.390625 L 19.921875 -22.796875 C 19.921875 -22.453125 20.09375 -22.28125 20.4375 -22.28125 L 21.046875 -22.28125 C 21.390625 -22.28125 21.5625 -22.101562 21.5625 -21.75 L 21.5625 -3.796875 C 21.5625 -3.453125 21.390625 -3.28125 21.046875 -3.28125 L 20.4375 -3.28125 C 20.09375 -3.28125 19.921875 -3.101562 19.921875 -2.75 L 19.921875 -2.15625 C 19.921875 -1.8125 19.75 -1.640625 19.40625 -1.640625 L 18.8125 -1.640625 C 18.457031 -1.640625 18.28125 -1.46875 18.28125 -1.125 L 18.28125 -0.515625 C 18.28125 -0.171875 18.109375 0 17.765625 0 L 5.703125 0 C 5.359375 0 5.1875 -0.171875 5.1875 -0.515625 Z M 10.921875 -2.734375 L 10.921875 -2.125 C 10.921875 -1.78125 11.09375 -1.609375 11.4375 -1.609375 L 12.03125 -1.609375 C 12.382812 -1.609375 12.5625 -1.78125 12.5625 -2.125 L 12.5625 -2.734375 C 12.5625 -3.078125 12.734375 -3.25 13.078125 -3.25 L 13.671875 -3.25 C 14.015625 -3.25 14.1875 -3.421875 14.1875 -3.765625 L 14.1875 -21.75 C 14.1875 -22.101562 14.015625 -22.28125 13.671875 -22.28125 L 13.078125 -22.28125 C 12.734375 -22.28125 12.5625 -22.453125 12.5625 -22.796875 L 12.5625 -23.390625 C 12.5625 -23.734375 12.382812 -23.90625 12.03125 -23.90625 L 11.4375 -23.90625 C 11.09375 -23.90625 10.921875 -23.734375 10.921875 -23.390625 L 10.921875 -22.796875 C 10.921875 -22.453125 10.75 -22.28125 10.40625 -22.28125 L 9.796875 -22.28125 C 9.453125 -22.28125 9.28125 -22.101562 9.28125 -21.75 L 9.28125 -3.765625 C 9.28125 -3.421875 9.453125 -3.25 9.796875 -3.25 L 10.40625 -3.25 C 10.75 -3.25 10.921875 -3.078125 10.921875 -2.734375 Z M 10.921875 -2.734375 "/></g></g></g><g fill="#ffffff" fill-opacity="1"><g transform="translate(132.710173, 29.034922)"><g><path d="M 5.1875 -0.515625 L 5.1875 -1.125 C 5.1875 -1.46875 5.015625 -1.640625 4.671875 -1.640625 L 4.0625 -1.640625 C 3.71875 -1.640625 3.546875 -1.8125 3.546875 -2.15625 L 3.546875 -2.75 C 3.546875 -3.101562 3.375 -3.28125 3.03125 -3.28125 L 2.421875 -3.28125 C 2.078125 -3.28125 1.90625 -3.453125 1.90625 -3.796875 L 1.90625 -21.75 C 1.90625 -22.101562 2.078125 -22.28125 2.421875 -22.28125 L 3.03125 -22.28125 C 3.375 -22.28125 3.546875 -22.453125 3.546875 -22.796875 L 3.546875 -23.390625 C 3.546875 -23.734375 3.71875 -23.90625 4.0625 -23.90625 L 4.671875 -23.90625 C 5.015625 -23.90625 5.1875 -24.082031 5.1875 -24.4375 L 5.1875 -25.03125 C 5.1875 -25.375 5.359375 -25.546875 5.703125 -25.546875 L 17.765625 -25.546875 C 18.109375 -25.546875 18.28125 -25.375 18.28125 -25.03125 L 18.28125 -24.4375 C 18.28125 -24.082031 18.457031 -23.90625 18.8125 -23.90625 L 19.40625 -23.90625 C 19.75 -23.90625 19.921875 -23.734375 19.921875 -23.390625 L 19.921875 -22.796875 C 19.921875 -22.453125 20.09375 -22.28125 20.4375 -22.28125 L 21.046875 -22.28125 C 21.390625 -22.28125 21.5625 -22.101562 21.5625 -21.75 L 21.5625 -3.796875 C 21.5625 -3.453125 21.390625 -3.28125 21.046875 -3.28125 L 20.4375 -3.28125 C 20.09375 -3.28125 19.921875 -3.101562 19.921875 -2.75 L 19.921875 -2.15625 C 19.921875 -1.8125 19.75 -1.640625 19.40625 -1.640625 L 18.8125 -1.640625 C 18.457031 -1.640625 18.28125 -1.46875 18.28125 -1.125 L 18.28125 -0.515625 C 18.28125 -0.171875 18.109375 0 17.765625 0 L 5.703125 0 C 5.359375 0 5.1875 -0.171875 5.1875 -0.515625 Z M 10.921875 -2.734375 L 10.921875 -2.125 C 10.921875 -1.78125 11.09375 -1.609375 11.4375 -1.609375 L 12.03125 -1.609375 C 12.382812 -1.609375 12.5625 -1.78125 12.5625 -2.125 L 12.5625 -2.734375 C 12.5625 -3.078125 12.734375 -3.25 13.078125 -3.25 L 13.671875 -3.25 C 14.015625 -3.25 14.1875 -3.421875 14.1875 -3.765625 L 14.1875 -21.75 C 14.1875 -22.101562 14.015625 -22.28125 13.671875 -22.28125 L 13.078125 -22.28125 C 12.734375 -22.28125 12.5625 -22.453125 12.5625 -22.796875 L 12.5625 -23.390625 C 12.5625 -23.734375 12.382812 -23.90625 12.03125 -23.90625 L 11.4375 -23.90625 C 11.09375 -23.90625 10.921875 -23.734375 10.921875 -23.390625 L 10.921875 -22.796875 C 10.921875 -22.453125 10.75 -22.28125 10.40625 -22.28125 L 9.796875 -22.28125 C 9.453125 -22.28125 9.28125 -22.101562 9.28125 -21.75 L 9.28125 -3.765625 C 9.28125 -3.421875 9.453125 -3.25 9.796875 -3.25 L 10.40625 -3.25 C 10.75 -3.25 10.921875 -3.078125 10.921875 -2.734375 Z M 10.921875 -2.734375 "/></g></g></g><g fill="#ffffff" fill-opacity="1"><g transform="translate(156.179531, 29.034922)"><g><path d="M 5.1875 -0.515625 L 5.1875 -1.125 C 5.1875 -1.46875 5.015625 -1.640625 4.671875 -1.640625 L 4.0625 -1.640625 C 3.71875 -1.640625 3.546875 -1.8125 3.546875 -2.15625 L 3.546875 -2.75 C 3.546875 -3.101562 3.375 -3.28125 3.03125 -3.28125 L 2.421875 -3.28125 C 2.078125 -3.28125 1.90625 -3.453125 1.90625 -3.796875 L 1.90625 -21.75 C 1.90625 -22.101562 2.078125 -22.28125 2.421875 -22.28125 L 3.03125 -22.28125 C 3.375 -22.28125 3.546875 -22.453125 3.546875 -22.796875 L 3.546875 -23.390625 C 3.546875 -23.734375 3.71875 -23.90625 4.0625 -23.90625 L 4.671875 -23.90625 C 5.015625 -23.90625 5.1875 -24.082031 5.1875 -24.4375 L 5.1875 -25.03125 C 5.1875 -25.375 5.359375 -25.546875 5.703125 -25.546875 L 17.765625 -25.546875 C 18.109375 -25.546875 18.28125 -25.375 18.28125 -25.03125 L 18.28125 -24.4375 C 18.28125 -24.082031 18.457031 -23.90625 18.8125 -23.90625 L 19.40625 -23.90625 C 19.75 -23.90625 19.921875 -23.734375 19.921875 -23.390625 L 19.921875 -22.796875 C 19.921875 -22.453125 20.09375 -22.28125 20.4375 -22.28125 L 21.046875 -22.28125 C 21.390625 -22.28125 21.5625 -22.101562 21.5625 -21.75 L 21.5625 -3.796875 C 21.5625 -3.453125 21.390625 -3.28125 21.046875 -3.28125 L 20.4375 -3.28125 C 20.09375 -3.28125 19.921875 -3.101562 19.921875 -2.75 L 19.921875 -2.15625 C 19.921875 -1.8125 19.75 -1.640625 19.40625 -1.640625 L 18.8125 -1.640625 C 18.457031 -1.640625 18.28125 -1.46875 18.28125 -1.125 L 18.28125 -0.515625 C 18.28125 -0.171875 18.109375 0 17.765625 0 L 5.703125 0 C 5.359375 0 5.1875 -0.171875 5.1875 -0.515625 Z M 10.921875 -2.734375 L 10.921875 -2.125 C 10.921875 -1.78125 11.09375 -1.609375 11.4375 -1.609375 L 12.03125 -1.609375 C 12.382812 -1.609375 12.5625 -1.78125 12.5625 -2.125 L 12.5625 -2.734375 C 12.5625 -3.078125 12.734375 -3.25 13.078125 -3.25 L 13.671875 -3.25 C 14.015625 -3.25 14.1875 -3.421875 14.1875 -3.765625 L 14.1875 -21.75 C 14.1875 -22.101562 14.015625 -22.28125 13.671875 -22.28125 L 13.078125 -22.28125 C 12.734375 -22.28125 12.5625 -22.453125 12.5625 -22.796875 L 12.5625 -23.390625 C 12.5625 -23.734375 12.382812 -23.90625 12.03125 -23.90625 L 11.4375 -23.90625 C 11.09375 -23.90625 10.921875 -23.734375 10.921875 -23.390625 L 10.921875 -22.796875 C 10.921875 -22.453125 10.75 -22.28125 10.40625 -22.28125 L 9.796875 -22.28125 C 9.453125 -22.28125 9.28125 -22.101562 9.28125 -21.75 L 9.28125 -3.765625 C 9.28125 -3.421875 9.453125 -3.25 9.796875 -3.25 L 10.40625 -3.25 C 10.75 -3.25 10.921875 -3.078125 10.921875 -2.734375 Z M 10.921875 -2.734375 "/></g></g></g></svg>