<svg xmlns="http://www.w3.org/2000/svg" xmlns:xlink="http://www.w3.org/1999/xlink" width="240" zoomAndPan="magnify" viewBox="0 0 180 33.749998" height="45" preserveAspectRatio="xMidYMid meet" version="1.0"><defs><g/><clipPath id="07807ccde6"><path d="M 0.660156 0 L 179.335938 0 L 179.335938 33.5 L 0.660156 33.5 Z M 0.660156 0 " clip-rule="nonzero"/></clipPath><clipPath id="03787ae4c4"><rect x="0" width="180" y="0" height="34"/></clipPath></defs><g clip-path="url(#07807ccde6)"><g transform="matrix(1, 0, 0, 1, 0.000000000000000111, -0.000000000000001048)"><g clip-path="url(#03787ae4c4)"><g fill="#000000" fill-opacity="1"><g transform="translate(0.215912, 30.409579)"><g><path d="M 9.28125 -23.40625 L 9.28125 -13.1875 C 9.28125 -12.84375 9.457031 -12.671875 9.8125 -12.671875 L 10.40625 -12.671875 C 10.75 -12.671875 10.921875 -12.84375 10.921875 -13.1875 L 10.921875 -13.796875 C 10.921875 -14.140625 11.09375 -14.3125 11.4375 -14.3125 L 12.046875 -14.3125 C 12.390625 -14.3125 12.5625 -14.484375 12.5625 -14.828125 L 12.5625 -21.765625 C 12.5625 -22.109375 12.390625 -22.28125 12.046875 -22.28125 L 11.4375 -22.28125 C 11.09375 -22.28125 10.921875 -22.457031 10.921875 -22.8125 L 10.921875 -23.40625 C 10.921875 -23.75 10.75 -23.921875 10.40625 -23.921875 L 9.8125 -23.921875 C 9.457031 -23.921875 9.28125 -23.75 9.28125 -23.40625 Z M 1.90625 -0.515625 L 1.90625 -25.046875 C 1.90625 -25.390625 2.082031 -25.5625 2.4375 -25.5625 L 16.140625 -25.5625 C 16.484375 -25.5625 16.65625 -25.390625 16.65625 -25.046875 L 16.65625 -24.4375 C 16.65625 -24.09375 16.828125 -23.921875 17.171875 -23.921875 L 17.78125 -23.921875 C 18.125 -23.921875 18.296875 -23.75 18.296875 -23.40625 L 18.296875 -22.8125 C 18.296875 -22.457031 18.46875 -22.28125 18.8125 -22.28125 L 19.421875 -22.28125 C 19.765625 -22.28125 19.9375 -22.109375 19.9375 -21.765625 L 19.9375 -14.828125 C 19.9375 -14.484375 19.765625 -14.3125 19.421875 -14.3125 L 18.8125 -14.3125 C 18.46875 -14.3125 18.296875 -14.140625 18.296875 -13.796875 L 18.296875 -13.1875 C 18.296875 -12.84375 18.125 -12.671875 17.78125 -12.671875 L 14.71875 -12.671875 C 14.375 -12.671875 14.203125 -12.5 14.203125 -12.15625 L 14.203125 -11.546875 C 14.203125 -11.203125 14.375 -11.03125 14.71875 -11.03125 L 17.78125 -11.03125 C 18.125 -11.03125 18.296875 -10.859375 18.296875 -10.515625 L 18.296875 -9.921875 C 18.296875 -9.566406 18.46875 -9.390625 18.8125 -9.390625 L 19.421875 -9.390625 C 19.765625 -9.390625 19.9375 -9.21875 19.9375 -8.875 L 19.9375 -0.515625 C 19.9375 -0.171875 19.765625 0 19.421875 0 L 13.078125 0 C 12.734375 0 12.5625 -0.171875 12.5625 -0.515625 L 12.5625 -8.875 C 12.5625 -9.21875 12.390625 -9.390625 12.046875 -9.390625 L 11.4375 -9.390625 C 11.09375 -9.390625 10.921875 -9.566406 10.921875 -9.921875 L 10.921875 -10.515625 C 10.921875 -10.859375 10.75 -11.03125 10.40625 -11.03125 L 9.8125 -11.03125 C 9.457031 -11.03125 9.28125 -10.859375 9.28125 -10.515625 L 9.28125 -0.515625 C 9.28125 -0.171875 9.109375 0 8.765625 0 L 2.4375 0 C 2.082031 0 1.90625 -0.171875 1.90625 -0.515625 Z M 1.90625 -0.515625 "/></g></g></g><g fill="#000000" fill-opacity="1"><g transform="translate(22.069926, 30.409579)"><g><path d="M 5.1875 -0.515625 L 5.1875 -1.125 C 5.1875 -1.46875 5.015625 -1.640625 4.671875 -1.640625 L 4.0625 -1.640625 C 3.71875 -1.640625 3.546875 -1.8125 3.546875 -2.15625 L 3.546875 -2.765625 C 3.546875 -3.109375 3.375 -3.28125 3.03125 -3.28125 L 2.4375 -3.28125 C 2.082031 -3.28125 1.90625 -3.453125 1.90625 -3.796875 L 1.90625 -21.765625 C 1.90625 -22.109375 2.082031 -22.28125 2.4375 -22.28125 L 3.03125 -22.28125 C 3.375 -22.28125 3.546875 -22.457031 3.546875 -22.8125 L 3.546875 -23.40625 C 3.546875 -23.75 3.71875 -23.921875 4.0625 -23.921875 L 4.671875 -23.921875 C 5.015625 -23.921875 5.1875 -24.09375 5.1875 -24.4375 L 5.1875 -25.046875 C 5.1875 -25.390625 5.359375 -25.5625 5.703125 -25.5625 L 17.34375 -25.5625 C 17.707031 -25.5625 17.890625 -25.378906 17.890625 -25.015625 L 17.890625 -24.46875 C 17.890625 -24.101562 18.070312 -23.921875 18.4375 -23.921875 L 19.390625 -23.921875 C 19.753906 -23.921875 19.9375 -23.738281 19.9375 -23.375 L 19.9375 -18.734375 C 19.9375 -18.367188 19.753906 -18.1875 19.390625 -18.1875 L 14.75 -18.1875 C 14.382812 -18.1875 14.203125 -18.367188 14.203125 -18.734375 L 14.203125 -19.3125 C 14.203125 -19.65625 14.03125 -19.828125 13.6875 -19.828125 L 13.109375 -19.828125 C 12.742188 -19.828125 12.5625 -20.007812 12.5625 -20.375 L 12.5625 -23.40625 C 12.5625 -23.75 12.390625 -23.921875 12.046875 -23.921875 L 11.4375 -23.921875 C 11.09375 -23.921875 10.921875 -23.75 10.921875 -23.40625 L 10.921875 -22.8125 C 10.921875 -22.457031 10.75 -22.28125 10.40625 -22.28125 L 9.8125 -22.28125 C 9.457031 -22.28125 9.28125 -22.109375 9.28125 -21.765625 L 9.28125 -3.796875 C 9.28125 -3.453125 9.457031 -3.28125 9.8125 -3.28125 L 10.40625 -3.28125 C 10.75 -3.28125 10.921875 -3.109375 10.921875 -2.765625 L 10.921875 -2.15625 C 10.921875 -1.8125 11.09375 -1.640625 11.4375 -1.640625 L 12.046875 -1.640625 C 12.390625 -1.640625 12.5625 -1.8125 12.5625 -2.15625 L 12.5625 -6.828125 C 12.5625 -7.191406 12.742188 -7.375 13.109375 -7.375 L 19.390625 -7.375 C 19.753906 -7.375 19.9375 -7.191406 19.9375 -6.828125 L 19.9375 -2.1875 C 19.9375 -1.820312 19.753906 -1.640625 19.390625 -1.640625 L 18.84375 -1.640625 C 18.476562 -1.640625 18.296875 -1.457031 18.296875 -1.09375 L 18.296875 -0.546875 C 18.296875 -0.179688 18.113281 0 17.75 0 L 5.703125 0 C 5.359375 0 5.1875 -0.171875 5.1875 -0.515625 Z M 5.1875 -0.515625 "/></g></g></g><g fill="#000000" fill-opacity="1"><g transform="translate(43.650779, 30.409579)"><g><path d="M 9.28125 -23.40625 L 9.28125 -13.1875 C 9.28125 -12.84375 9.457031 -12.671875 9.8125 -12.671875 L 10.40625 -12.671875 C 10.75 -12.671875 10.921875 -12.84375 10.921875 -13.1875 L 10.921875 -13.796875 C 10.921875 -14.140625 11.09375 -14.3125 11.4375 -14.3125 L 12.046875 -14.3125 C 12.390625 -14.3125 12.5625 -14.484375 12.5625 -14.828125 L 12.5625 -21.765625 C 12.5625 -22.109375 12.390625 -22.28125 12.046875 -22.28125 L 11.4375 -22.28125 C 11.09375 -22.28125 10.921875 -22.457031 10.921875 -22.8125 L 10.921875 -23.40625 C 10.921875 -23.75 10.75 -23.921875 10.40625 -23.921875 L 9.8125 -23.921875 C 9.457031 -23.921875 9.28125 -23.75 9.28125 -23.40625 Z M 1.90625 -0.515625 L 1.90625 -25.046875 C 1.90625 -25.390625 2.082031 -25.5625 2.4375 -25.5625 L 16.140625 -25.5625 C 16.484375 -25.5625 16.65625 -25.390625 16.65625 -25.046875 L 16.65625 -24.4375 C 16.65625 -24.09375 16.828125 -23.921875 17.171875 -23.921875 L 17.78125 -23.921875 C 18.125 -23.921875 18.296875 -23.75 18.296875 -23.40625 L 18.296875 -22.8125 C 18.296875 -22.457031 18.46875 -22.28125 18.8125 -22.28125 L 19.421875 -22.28125 C 19.765625 -22.28125 19.9375 -22.109375 19.9375 -21.765625 L 19.9375 -14.828125 C 19.9375 -14.484375 19.765625 -14.3125 19.421875 -14.3125 L 18.8125 -14.3125 C 18.46875 -14.3125 18.296875 -14.140625 18.296875 -13.796875 L 18.296875 -13.1875 C 18.296875 -12.84375 18.125 -12.671875 17.78125 -12.671875 L 14.71875 -12.671875 C 14.375 -12.671875 14.203125 -12.5 14.203125 -12.15625 L 14.203125 -11.546875 C 14.203125 -11.203125 14.375 -11.03125 14.71875 -11.03125 L 17.78125 -11.03125 C 18.125 -11.03125 18.296875 -10.859375 18.296875 -10.515625 L 18.296875 -9.921875 C 18.296875 -9.566406 18.46875 -9.390625 18.8125 -9.390625 L 19.421875 -9.390625 C 19.765625 -9.390625 19.9375 -9.21875 19.9375 -8.875 L 19.9375 -0.515625 C 19.9375 -0.171875 19.765625 0 19.421875 0 L 13.078125 0 C 12.734375 0 12.5625 -0.171875 12.5625 -0.515625 L 12.5625 -8.875 C 12.5625 -9.21875 12.390625 -9.390625 12.046875 -9.390625 L 11.4375 -9.390625 C 11.09375 -9.390625 10.921875 -9.566406 10.921875 -9.921875 L 10.921875 -10.515625 C 10.921875 -10.859375 10.75 -11.03125 10.40625 -11.03125 L 9.8125 -11.03125 C 9.457031 -11.03125 9.28125 -10.859375 9.28125 -10.515625 L 9.28125 -0.515625 C 9.28125 -0.171875 9.109375 0 8.765625 0 L 2.4375 0 C 2.082031 0 1.90625 -0.171875 1.90625 -0.515625 Z M 1.90625 -0.515625 "/></g></g></g><g fill="#000000" fill-opacity="1"><g transform="translate(65.504793, 30.409579)"><g><path d="M 2.875 -0.515625 L 2.875 -1.125 C 2.875 -1.46875 2.695312 -1.640625 2.34375 -1.640625 L 1.75 -1.640625 C 1.40625 -1.640625 1.234375 -1.8125 1.234375 -2.15625 L 1.234375 -6.859375 C 1.234375 -7.203125 1.40625 -7.375 1.75 -7.375 L 8.078125 -7.375 C 8.429688 -7.375 8.609375 -7.203125 8.609375 -6.859375 L 8.609375 -2.15625 C 8.609375 -1.8125 8.78125 -1.640625 9.125 -1.640625 L 9.71875 -1.640625 C 10.070312 -1.640625 10.25 -1.8125 10.25 -2.15625 L 10.25 -2.765625 C 10.25 -3.109375 10.421875 -3.28125 10.765625 -3.28125 L 11.65625 -3.28125 C 12.007812 -3.28125 12.1875 -3.453125 12.1875 -3.796875 L 12.1875 -10.296875 C 12.1875 -10.640625 12.007812 -10.8125 11.65625 -10.8125 L 11.0625 -10.8125 C 10.71875 -10.8125 10.546875 -10.984375 10.546875 -11.328125 L 10.546875 -11.9375 C 10.546875 -12.28125 10.375 -12.453125 10.03125 -12.453125 L 5.328125 -12.453125 C 4.984375 -12.453125 4.8125 -12.625 4.8125 -12.96875 L 4.8125 -13.578125 C 4.8125 -13.921875 4.632812 -14.09375 4.28125 -14.09375 L 3.6875 -14.09375 C 3.34375 -14.09375 3.171875 -14.265625 3.171875 -14.609375 L 3.171875 -15.1875 C 3.171875 -15.550781 2.988281 -15.734375 2.625 -15.734375 L 2.078125 -15.734375 C 1.710938 -15.734375 1.53125 -15.914062 1.53125 -16.28125 L 1.53125 -21.734375 C 1.53125 -22.097656 1.710938 -22.28125 2.078125 -22.28125 L 2.625 -22.28125 C 2.988281 -22.28125 3.171875 -22.460938 3.171875 -22.828125 L 3.171875 -23.40625 C 3.171875 -23.75 3.34375 -23.921875 3.6875 -23.921875 L 4.28125 -23.921875 C 4.632812 -23.921875 4.8125 -24.09375 4.8125 -24.4375 L 4.8125 -25.046875 C 4.8125 -25.390625 4.984375 -25.5625 5.328125 -25.5625 L 15.484375 -25.5625 C 15.828125 -25.5625 16 -25.390625 16 -25.046875 L 16 -24.4375 C 16 -24.09375 16.175781 -23.921875 16.53125 -23.921875 L 18.484375 -23.921875 C 18.835938 -23.921875 19.015625 -23.75 19.015625 -23.40625 L 19.015625 -18.703125 C 19.015625 -18.359375 18.835938 -18.1875 18.484375 -18.1875 L 14.34375 -18.1875 C 13.988281 -18.1875 13.8125 -18.359375 13.8125 -18.703125 L 13.8125 -19.3125 C 13.8125 -19.65625 13.640625 -19.828125 13.296875 -19.828125 L 12.703125 -19.828125 C 12.359375 -19.828125 12.1875 -20 12.1875 -20.34375 L 12.1875 -23.40625 C 12.1875 -23.75 12.007812 -23.921875 11.65625 -23.921875 L 11.0625 -23.921875 C 10.71875 -23.921875 10.546875 -23.75 10.546875 -23.40625 L 10.546875 -22.8125 C 10.546875 -22.457031 10.375 -22.28125 10.03125 -22.28125 L 9.421875 -22.28125 C 9.078125 -22.28125 8.90625 -22.109375 8.90625 -21.765625 L 8.90625 -16.25 C 8.90625 -15.90625 9.078125 -15.734375 9.421875 -15.734375 L 10.296875 -15.734375 C 10.640625 -15.734375 10.8125 -15.5625 10.8125 -15.21875 L 10.8125 -14.609375 C 10.8125 -14.265625 10.984375 -14.09375 11.328125 -14.09375 L 15.765625 -14.09375 C 16.109375 -14.09375 16.28125 -13.921875 16.28125 -13.578125 L 16.28125 -12.96875 C 16.28125 -12.625 16.453125 -12.453125 16.796875 -12.453125 L 17.390625 -12.453125 C 17.742188 -12.453125 17.921875 -12.28125 17.921875 -11.9375 L 17.921875 -11.359375 C 17.921875 -10.992188 18.101562 -10.8125 18.46875 -10.8125 L 19.015625 -10.8125 C 19.378906 -10.8125 19.5625 -10.628906 19.5625 -10.265625 L 19.5625 -3.828125 C 19.5625 -3.460938 19.378906 -3.28125 19.015625 -3.28125 L 18.46875 -3.28125 C 18.101562 -3.28125 17.921875 -3.097656 17.921875 -2.734375 L 17.921875 -2.15625 C 17.921875 -1.8125 17.742188 -1.640625 17.390625 -1.640625 L 16.796875 -1.640625 C 16.453125 -1.640625 16.28125 -1.46875 16.28125 -1.125 L 16.28125 -0.515625 C 16.28125 -0.171875 16.113281 0 15.78125 0 L 3.359375 0 C 3.035156 0 2.875 -0.171875 2.875 -0.515625 Z M 2.875 -0.515625 "/></g></g></g><g fill="#000000" fill-opacity="1"><g transform="translate(86.566589, 30.409579)"><g><path d="M 3.828125 -0.515625 L 3.828125 -1.125 C 3.828125 -1.46875 3.65625 -1.640625 3.3125 -1.640625 L 2.296875 -1.640625 C 1.953125 -1.640625 1.78125 -1.8125 1.78125 -2.15625 L 1.78125 -6.859375 C 1.78125 -7.203125 1.953125 -7.375 2.296875 -7.375 L 6.984375 -7.375 C 7.335938 -7.375 7.515625 -7.203125 7.515625 -6.859375 L 7.515625 -6.25 C 7.515625 -5.90625 7.6875 -5.734375 8.03125 -5.734375 L 8.625 -5.734375 C 8.976562 -5.734375 9.15625 -5.5625 9.15625 -5.21875 L 9.15625 -2.15625 C 9.15625 -1.8125 9.328125 -1.640625 9.671875 -1.640625 L 10.8125 -1.640625 C 11.15625 -1.640625 11.328125 -1.8125 11.328125 -2.15625 L 11.328125 -2.765625 C 11.328125 -3.109375 11.503906 -3.28125 11.859375 -3.28125 L 12.453125 -3.28125 C 12.796875 -3.28125 12.96875 -3.453125 12.96875 -3.796875 L 12.96875 -11.5 C 12.96875 -11.84375 12.796875 -12.015625 12.453125 -12.015625 L 11.859375 -12.015625 C 11.503906 -12.015625 11.328125 -12.1875 11.328125 -12.53125 L 11.328125 -13.140625 C 11.328125 -13.484375 11.15625 -13.65625 10.8125 -13.65625 L 3.9375 -13.65625 C 3.59375 -13.65625 3.421875 -13.828125 3.421875 -14.171875 L 3.421875 -14.78125 C 3.421875 -15.125 3.242188 -15.296875 2.890625 -15.296875 L 2.296875 -15.296875 C 1.953125 -15.296875 1.78125 -15.46875 1.78125 -15.8125 L 1.78125 -25.046875 C 1.78125 -25.390625 1.953125 -25.5625 2.296875 -25.5625 L 19.828125 -25.5625 C 20.171875 -25.5625 20.34375 -25.390625 20.34375 -25.046875 L 20.34375 -18.703125 C 20.34375 -18.359375 20.171875 -18.1875 19.828125 -18.1875 L 13.5 -18.1875 C 13.144531 -18.1875 12.96875 -18.359375 12.96875 -18.703125 L 12.96875 -23.40625 C 12.96875 -23.75 12.796875 -23.921875 12.453125 -23.921875 L 11.859375 -23.921875 C 11.503906 -23.921875 11.328125 -23.75 11.328125 -23.40625 L 11.328125 -22.8125 C 11.328125 -22.457031 11.15625 -22.28125 10.8125 -22.28125 L 9.390625 -22.28125 C 9.046875 -22.28125 8.875 -22.109375 8.875 -21.765625 L 8.875 -17.453125 C 8.875 -17.109375 9.046875 -16.9375 9.390625 -16.9375 L 10 -16.9375 C 10.34375 -16.9375 10.515625 -16.765625 10.515625 -16.421875 L 10.515625 -15.8125 C 10.515625 -15.46875 10.6875 -15.296875 11.03125 -15.296875 L 17.09375 -15.296875 C 17.4375 -15.296875 17.609375 -15.125 17.609375 -14.78125 L 17.609375 -14.171875 C 17.609375 -13.828125 17.785156 -13.65625 18.140625 -13.65625 L 18.734375 -13.65625 C 19.078125 -13.65625 19.25 -13.484375 19.25 -13.140625 L 19.25 -12.53125 C 19.25 -12.1875 19.425781 -12.015625 19.78125 -12.015625 L 20.375 -12.015625 C 20.71875 -12.015625 20.890625 -11.84375 20.890625 -11.5 L 20.890625 -3.796875 C 20.890625 -3.453125 20.71875 -3.28125 20.375 -3.28125 L 19.96875 -3.28125 C 19.625 -3.28125 19.453125 -3.109375 19.453125 -2.765625 L 19.453125 -2.15625 C 19.453125 -1.8125 19.273438 -1.640625 18.921875 -1.640625 L 18.328125 -1.640625 C 17.984375 -1.640625 17.8125 -1.46875 17.8125 -1.125 L 17.8125 -0.515625 C 17.8125 -0.171875 17.632812 0 17.28125 0 L 4.34375 0 C 4 0 3.828125 -0.171875 3.828125 -0.515625 Z M 3.828125 -0.515625 "/></g></g></g><g fill="#000000" fill-opacity="1"><g transform="translate(109.240125, 30.409579)"><g><path d="M 5.1875 -0.515625 L 5.1875 -1.125 C 5.1875 -1.46875 5.015625 -1.640625 4.671875 -1.640625 L 4.0625 -1.640625 C 3.71875 -1.640625 3.546875 -1.8125 3.546875 -2.15625 L 3.546875 -2.765625 C 3.546875 -3.109375 3.375 -3.28125 3.03125 -3.28125 L 2.4375 -3.28125 C 2.082031 -3.28125 1.90625 -3.453125 1.90625 -3.796875 L 1.90625 -21.765625 C 1.90625 -22.109375 2.082031 -22.28125 2.4375 -22.28125 L 3.03125 -22.28125 C 3.375 -22.28125 3.546875 -22.457031 3.546875 -22.8125 L 3.546875 -23.40625 C 3.546875 -23.75 3.71875 -23.921875 4.0625 -23.921875 L 4.671875 -23.921875 C 5.015625 -23.921875 5.1875 -24.09375 5.1875 -24.4375 L 5.1875 -25.046875 C 5.1875 -25.390625 5.359375 -25.5625 5.703125 -25.5625 L 17.78125 -25.5625 C 18.125 -25.5625 18.296875 -25.390625 18.296875 -25.046875 L 18.296875 -24.4375 C 18.296875 -24.09375 18.46875 -23.921875 18.8125 -23.921875 L 19.421875 -23.921875 C 19.765625 -23.921875 19.9375 -23.75 19.9375 -23.40625 L 19.9375 -22.8125 C 19.9375 -22.457031 20.109375 -22.28125 20.453125 -22.28125 L 21.0625 -22.28125 C 21.40625 -22.28125 21.578125 -22.109375 21.578125 -21.765625 L 21.578125 -3.796875 C 21.578125 -3.453125 21.40625 -3.28125 21.0625 -3.28125 L 20.453125 -3.28125 C 20.109375 -3.28125 19.9375 -3.109375 19.9375 -2.765625 L 19.9375 -2.15625 C 19.9375 -1.8125 19.765625 -1.640625 19.421875 -1.640625 L 18.8125 -1.640625 C 18.46875 -1.640625 18.296875 -1.46875 18.296875 -1.125 L 18.296875 -0.515625 C 18.296875 -0.171875 18.125 0 17.78125 0 L 5.703125 0 C 5.359375 0 5.1875 -0.171875 5.1875 -0.515625 Z M 10.921875 -2.734375 L 10.921875 -2.125 C 10.921875 -1.78125 11.09375 -1.609375 11.4375 -1.609375 L 12.046875 -1.609375 C 12.390625 -1.609375 12.5625 -1.78125 12.5625 -2.125 L 12.5625 -2.734375 C 12.5625 -3.078125 12.734375 -3.25 13.078125 -3.25 L 13.6875 -3.25 C 14.03125 -3.25 14.203125 -3.421875 14.203125 -3.765625 L 14.203125 -21.765625 C 14.203125 -22.109375 14.03125 -22.28125 13.6875 -22.28125 L 13.078125 -22.28125 C 12.734375 -22.28125 12.5625 -22.457031 12.5625 -22.8125 L 12.5625 -23.40625 C 12.5625 -23.75 12.390625 -23.921875 12.046875 -23.921875 L 11.4375 -23.921875 C 11.09375 -23.921875 10.921875 -23.75 10.921875 -23.40625 L 10.921875 -22.8125 C 10.921875 -22.457031 10.75 -22.28125 10.40625 -22.28125 L 9.8125 -22.28125 C 9.457031 -22.28125 9.28125 -22.109375 9.28125 -21.765625 L 9.28125 -3.765625 C 9.28125 -3.421875 9.457031 -3.25 9.8125 -3.25 L 10.40625 -3.25 C 10.75 -3.25 10.921875 -3.078125 10.921875 -2.734375 Z M 10.921875 -2.734375 "/></g></g></g><g fill="#000000" fill-opacity="1"><g transform="translate(132.733182, 30.409579)"><g><path d="M 5.1875 -0.515625 L 5.1875 -1.125 C 5.1875 -1.46875 5.015625 -1.640625 4.671875 -1.640625 L 4.0625 -1.640625 C 3.71875 -1.640625 3.546875 -1.8125 3.546875 -2.15625 L 3.546875 -2.765625 C 3.546875 -3.109375 3.375 -3.28125 3.03125 -3.28125 L 2.4375 -3.28125 C 2.082031 -3.28125 1.90625 -3.453125 1.90625 -3.796875 L 1.90625 -21.765625 C 1.90625 -22.109375 2.082031 -22.28125 2.4375 -22.28125 L 3.03125 -22.28125 C 3.375 -22.28125 3.546875 -22.457031 3.546875 -22.8125 L 3.546875 -23.40625 C 3.546875 -23.75 3.71875 -23.921875 4.0625 -23.921875 L 4.671875 -23.921875 C 5.015625 -23.921875 5.1875 -24.09375 5.1875 -24.4375 L 5.1875 -25.046875 C 5.1875 -25.390625 5.359375 -25.5625 5.703125 -25.5625 L 17.78125 -25.5625 C 18.125 -25.5625 18.296875 -25.390625 18.296875 -25.046875 L 18.296875 -24.4375 C 18.296875 -24.09375 18.46875 -23.921875 18.8125 -23.921875 L 19.421875 -23.921875 C 19.765625 -23.921875 19.9375 -23.75 19.9375 -23.40625 L 19.9375 -22.8125 C 19.9375 -22.457031 20.109375 -22.28125 20.453125 -22.28125 L 21.0625 -22.28125 C 21.40625 -22.28125 21.578125 -22.109375 21.578125 -21.765625 L 21.578125 -3.796875 C 21.578125 -3.453125 21.40625 -3.28125 21.0625 -3.28125 L 20.453125 -3.28125 C 20.109375 -3.28125 19.9375 -3.109375 19.9375 -2.765625 L 19.9375 -2.15625 C 19.9375 -1.8125 19.765625 -1.640625 19.421875 -1.640625 L 18.8125 -1.640625 C 18.46875 -1.640625 18.296875 -1.46875 18.296875 -1.125 L 18.296875 -0.515625 C 18.296875 -0.171875 18.125 0 17.78125 0 L 5.703125 0 C 5.359375 0 5.1875 -0.171875 5.1875 -0.515625 Z M 10.921875 -2.734375 L 10.921875 -2.125 C 10.921875 -1.78125 11.09375 -1.609375 11.4375 -1.609375 L 12.046875 -1.609375 C 12.390625 -1.609375 12.5625 -1.78125 12.5625 -2.125 L 12.5625 -2.734375 C 12.5625 -3.078125 12.734375 -3.25 13.078125 -3.25 L 13.6875 -3.25 C 14.03125 -3.25 14.203125 -3.421875 14.203125 -3.765625 L 14.203125 -21.765625 C 14.203125 -22.109375 14.03125 -22.28125 13.6875 -22.28125 L 13.078125 -22.28125 C 12.734375 -22.28125 12.5625 -22.457031 12.5625 -22.8125 L 12.5625 -23.40625 C 12.5625 -23.75 12.390625 -23.921875 12.046875 -23.921875 L 11.4375 -23.921875 C 11.09375 -23.921875 10.921875 -23.75 10.921875 -23.40625 L 10.921875 -22.8125 C 10.921875 -22.457031 10.75 -22.28125 10.40625 -22.28125 L 9.8125 -22.28125 C 9.457031 -22.28125 9.28125 -22.109375 9.28125 -21.765625 L 9.28125 -3.765625 C 9.28125 -3.421875 9.457031 -3.25 9.8125 -3.25 L 10.40625 -3.25 C 10.75 -3.25 10.921875 -3.078125 10.921875 -2.734375 Z M 10.921875 -2.734375 "/></g></g></g><g fill="#000000" fill-opacity="1"><g transform="translate(156.22624, 30.409579)"><g><path d="M 5.1875 -0.515625 L 5.1875 -1.125 C 5.1875 -1.46875 5.015625 -1.640625 4.671875 -1.640625 L 4.0625 -1.640625 C 3.71875 -1.640625 3.546875 -1.8125 3.546875 -2.15625 L 3.546875 -2.765625 C 3.546875 -3.109375 3.375 -3.28125 3.03125 -3.28125 L 2.4375 -3.28125 C 2.082031 -3.28125 1.90625 -3.453125 1.90625 -3.796875 L 1.90625 -21.765625 C 1.90625 -22.109375 2.082031 -22.28125 2.4375 -22.28125 L 3.03125 -22.28125 C 3.375 -22.28125 3.546875 -22.457031 3.546875 -22.8125 L 3.546875 -23.40625 C 3.546875 -23.75 3.71875 -23.921875 4.0625 -23.921875 L 4.671875 -23.921875 C 5.015625 -23.921875 5.1875 -24.09375 5.1875 -24.4375 L 5.1875 -25.046875 C 5.1875 -25.390625 5.359375 -25.5625 5.703125 -25.5625 L 17.78125 -25.5625 C 18.125 -25.5625 18.296875 -25.390625 18.296875 -25.046875 L 18.296875 -24.4375 C 18.296875 -24.09375 18.46875 -23.921875 18.8125 -23.921875 L 19.421875 -23.921875 C 19.765625 -23.921875 19.9375 -23.75 19.9375 -23.40625 L 19.9375 -22.8125 C 19.9375 -22.457031 20.109375 -22.28125 20.453125 -22.28125 L 21.0625 -22.28125 C 21.40625 -22.28125 21.578125 -22.109375 21.578125 -21.765625 L 21.578125 -3.796875 C 21.578125 -3.453125 21.40625 -3.28125 21.0625 -3.28125 L 20.453125 -3.28125 C 20.109375 -3.28125 19.9375 -3.109375 19.9375 -2.765625 L 19.9375 -2.15625 C 19.9375 -1.8125 19.765625 -1.640625 19.421875 -1.640625 L 18.8125 -1.640625 C 18.46875 -1.640625 18.296875 -1.46875 18.296875 -1.125 L 18.296875 -0.515625 C 18.296875 -0.171875 18.125 0 17.78125 0 L 5.703125 0 C 5.359375 0 5.1875 -0.171875 5.1875 -0.515625 Z M 10.921875 -2.734375 L 10.921875 -2.125 C 10.921875 -1.78125 11.09375 -1.609375 11.4375 -1.609375 L 12.046875 -1.609375 C 12.390625 -1.609375 12.5625 -1.78125 12.5625 -2.125 L 12.5625 -2.734375 C 12.5625 -3.078125 12.734375 -3.25 13.078125 -3.25 L 13.6875 -3.25 C 14.03125 -3.25 14.203125 -3.421875 14.203125 -3.765625 L 14.203125 -21.765625 C 14.203125 -22.109375 14.03125 -22.28125 13.6875 -22.28125 L 13.078125 -22.28125 C 12.734375 -22.28125 12.5625 -22.457031 12.5625 -22.8125 L 12.5625 -23.40625 C 12.5625 -23.75 12.390625 -23.921875 12.046875 -23.921875 L 11.4375 -23.921875 C 11.09375 -23.921875 10.921875 -23.75 10.921875 -23.40625 L 10.921875 -22.8125 C 10.921875 -22.457031 10.75 -22.28125 10.40625 -22.28125 L 9.8125 -22.28125 C 9.457031 -22.28125 9.28125 -22.109375 9.28125 -21.765625 L 9.28125 -3.765625 C 9.28125 -3.421875 9.457031 -3.25 9.8125 -3.25 L 10.40625 -3.25 C 10.75 -3.25 10.921875 -3.078125 10.921875 -2.734375 Z M 10.921875 -2.734375 "/></g></g></g></g></g></g></svg>